<?xml version="1.0" encoding="UTF-8"?>
<svg xmlns="http://www.w3.org/2000/svg" xmlns:xlink="http://www.w3.org/1999/xlink" viewBox="0 0 48 48" width="48px" height="48px">
<g id="surface49673145">
<path style=" stroke:none;fill-rule:nonzero;fill:rgb(10.588235%,10.588235%,10.588235%);fill-opacity:1;" d="M 8.640625 6.71875 L 11.519531 39.359375 L 24.960938 43.199219 L 38.398438 39.359375 C 39.359375 28.480469 40.320312 17.601562 41.28125 6.71875 Z M 10.734375 8.640625 L 39.183594 8.640625 L 36.605469 37.875 L 24.960938 41.203125 L 13.316406 37.875 Z M 17.808594 14.398438 L 16.886719 25.921875 L 29.355469 25.921875 L 28.964844 30.71875 L 24.960938 31.3125 L 21.003906 30.71875 L 20.832031 28.800781 L 17.125 28.800781 L 17.5 33.601562 L 24.949219 35.519531 L 32.410156 33.601562 L 33.359375 22.078125 L 21.207031 22.078125 L 21.515625 18.238281 L 29.539062 18.238281 L 29.761719 20.160156 L 33.3125 20.160156 L 32.640625 14.398438 Z M 17.808594 14.398438 "/>
</g>
</svg>
