<?xml version="1.0" encoding="UTF-8"?>
<svg xmlns="http://www.w3.org/2000/svg" xmlns:xlink="http://www.w3.org/1999/xlink" viewBox="0 0 48 48" width="48px" height="48px">
<g id="surface160285460">
<path style=" stroke:none;fill-rule:nonzero;fill:rgb(10.588235%,10.588235%,10.588235%);fill-opacity:1;" d="M 24 3.070312 C 23.210938 3.070312 22.421875 3.277344 21.722656 3.691406 L 8.222656 11.636719 C 6.851562 12.441406 6 13.929688 6 15.515625 L 6 33.015625 C 6 34.664062 6.898438 36.179688 8.34375 36.96875 L 12.769531 39.382812 C 13.449219 39.753906 14.1875 39.933594 14.921875 39.933594 C 15.714844 39.933594 16.496094 39.71875 17.214844 39.300781 C 18.59375 38.480469 19.417969 37.035156 19.417969 35.425781 L 19.417969 16.394531 L 16.417969 16.394531 L 16.417969 35.425781 C 16.417969 36.195312 15.90625 36.585938 15.683594 36.714844 C 15.464844 36.84375 14.878906 37.113281 14.203125 36.746094 L 9.785156 34.335938 C 9.300781 34.070312 9 33.566406 9 33.019531 L 9 15.515625 C 9 14.988281 9.28125 14.492188 9.738281 14.222656 L 23.238281 6.277344 C 23.707031 6 24.292969 6.003906 24.761719 6.277344 L 38.261719 14.222656 C 38.714844 14.492188 39 14.988281 39 15.515625 L 39 33.03125 C 39 33.570312 38.699219 34.078125 38.222656 34.347656 L 24.722656 41.703125 C 24.269531 41.941406 23.730469 41.941406 23.277344 41.703125 L 20.644531 40.261719 C 20.132812 40.890625 19.5 41.433594 18.75 41.882812 C 18.511719 42.03125 18.269531 42.148438 18.027344 42.242188 L 21.835938 44.339844 C 22.527344 44.699219 23.25 44.882812 24 44.882812 C 24.75 44.882812 25.472656 44.699219 26.164062 44.339844 L 39.664062 36.960938 C 41.101562 36.179688 42 34.679688 42 33.03125 L 42 15.515625 C 42 13.929688 41.152344 12.441406 39.785156 11.636719 L 26.285156 3.691406 C 25.582031 3.277344 24.789062 3.070312 24 3.070312 Z M 28.355469 15.953125 C 23.613281 15.953125 21.210938 17.605469 21.210938 20.867188 C 21.210938 24.554688 25.460938 25.105469 27.503906 25.367188 C 27.796875 25.402344 28.058594 25.4375 28.265625 25.476562 L 29.164062 25.632812 C 32.28125 26.15625 33 26.511719 33 27.515625 C 33 28 32.996094 29.472656 28.355469 29.472656 C 24.414062 29.472656 23.605469 28.304688 23.605469 26.550781 L 20.605469 26.550781 C 20.605469 29.253906 21.953125 32.472656 28.355469 32.472656 C 34.671875 32.472656 36 29.777344 36 27.515625 C 36 23.742188 32.332031 23.121094 29.660156 22.671875 L 28.796875 22.523438 C 28.550781 22.476562 28.234375 22.4375 27.882812 22.394531 C 25.976562 22.148438 24.210938 21.796875 24.210938 20.871094 C 24.210938 20.203125 24.207031 18.957031 28.355469 18.957031 C 31.109375 18.957031 32.515625 19.863281 32.515625 21.652344 L 35.515625 21.652344 C 35.515625 18.898438 33.628906 15.957031 28.355469 15.957031 Z M 28.355469 15.953125 "/>
</g>
</svg>
